<svg width="1535" height="610" viewBox="0 0 1535 610" fill="none" xmlns="http://www.w3.org/2000/svg">
<g clip-path="url(#clip0_17_94)">
<path fill-rule="evenodd" clip-rule="evenodd" d="M304.373 360.775L47.6641 131.446L235.337 515.884L304.373 463.63L373.41 515.884L561.083 131.446L304.373 360.775Z" fill="#00BA98"/>
<path d="M47.6641 131.446L56.483 121.574L35.7685 137.253L47.6641 131.446ZM304.373 360.775L295.555 370.647L313.192 370.647L304.373 360.775ZM235.337 515.884L223.442 521.691L243.326 526.438L235.337 515.884ZM304.373 463.63L312.362 453.075H296.384L304.373 463.63ZM373.41 515.884L365.421 526.438L385.305 521.691L373.41 515.884ZM561.083 131.446L572.978 137.253L552.264 121.574L561.083 131.446ZM38.8452 141.318L295.555 370.647L313.192 350.903L56.483 121.574L38.8452 141.318ZM247.233 510.077L59.5596 125.639L35.7685 137.253L223.442 521.691L247.233 510.077ZM296.384 453.075L227.348 505.329L243.326 526.438L312.362 474.184L296.384 453.075ZM296.384 474.184L365.421 526.438L381.399 505.329L312.362 453.075L296.384 474.184ZM385.305 521.691L572.978 137.253L549.187 125.639L361.514 510.077L385.305 521.691ZM552.264 121.574L295.555 350.903L313.192 370.647L569.902 141.318L552.264 121.574Z" fill="#F1D900"/>
<path d="M301.248 545.431C275.409 545.431 248.511 540.56 220.553 530.817C192.596 521.075 167.392 506.249 144.942 486.34L207.21 411.364C222.036 423.224 237.921 432.967 254.865 440.592C272.232 447.793 288.54 451.393 303.79 451.393C320.31 451.393 332.17 448.852 339.372 443.769C346.996 438.686 350.809 431.484 350.809 422.165C350.809 415.388 348.479 410.093 343.819 406.281C339.583 402.045 333.229 398.232 324.758 394.844C316.709 391.031 306.755 386.795 294.894 382.136L243.427 360.532C228.602 354.602 214.835 346.554 202.127 336.388C189.419 325.798 179.253 313.09 171.628 298.264C164.004 283.015 160.191 265.436 160.191 245.527C160.191 221.805 166.757 200.414 179.888 181.352C193.02 161.867 211.023 146.406 233.897 134.969C257.194 123.108 283.881 117.178 313.956 117.178C337.677 117.178 361.61 121.837 385.755 131.156C410.324 140.052 432.139 153.818 451.2 172.457L396.557 241.079C382.578 231.336 369.023 223.923 355.892 218.84C343.184 213.757 329.205 211.216 313.956 211.216C300.824 211.216 290.235 213.545 282.186 218.205C274.562 222.864 270.749 229.854 270.749 239.173C270.749 245.527 273.079 251.033 277.739 255.693C282.822 259.929 290.023 263.953 299.342 267.765C308.661 271.154 319.463 275.39 331.747 280.473L381.943 300.17C399.31 306.948 413.924 315.631 425.785 326.221C437.645 336.388 446.753 348.672 453.107 363.074C459.461 377.476 462.637 394.208 462.637 413.27C462.637 436.568 456.284 458.383 443.576 478.715C431.292 498.624 413.077 514.721 388.932 527.005C364.787 539.289 335.559 545.431 301.248 545.431Z" fill="#8B00E0"/>
<path d="M646.579 423.431C643.558 422.592 641.124 421.836 639.278 421.165C637.432 420.662 636.509 420.41 636.509 420.41C636.845 419.571 636.677 418.815 636.005 418.144C635.502 417.473 634.327 417.053 632.481 416.885C629.963 415.207 627.361 412.857 624.676 409.836C621.991 406.815 619.641 403.71 617.627 400.521C615.613 397.332 614.27 394.982 613.598 393.471C612.424 390.954 612.508 389.443 613.85 388.94C615.193 388.268 616.787 387.513 618.634 386.674C620.48 385.331 622.41 384.324 624.424 383.653C626.606 382.981 628.369 384.072 629.711 386.925C631.893 390.786 635.25 394.059 639.782 396.744C644.481 399.43 649.768 401.024 655.643 401.528C661.685 402.031 667.727 401.024 673.77 398.507C677.798 396.66 679.98 394.143 680.315 390.954C680.651 387.597 679.392 383.736 676.539 379.373C676.035 378.03 675.28 376.939 674.273 376.1C673.434 375.261 672.091 374.17 670.245 372.827C668.566 371.484 666.133 369.302 662.944 366.281C660.426 365.106 658.076 364.015 655.894 363.008C653.88 362.001 651.698 360.91 649.349 359.735C646.663 358.392 643.642 356.546 640.285 354.196C636.928 351.679 633.823 348.993 630.97 346.14C628.117 343.119 625.935 340.266 624.424 337.58C621.739 335.063 620.06 331.622 619.389 327.258C618.718 322.726 618.802 317.943 619.641 312.908C620.648 307.872 622.242 303.341 624.424 299.312C625.431 296.963 627.278 293.941 629.963 290.249C632.648 286.389 635.67 282.444 639.026 278.416C642.383 274.388 645.572 270.779 648.593 267.59C651.782 264.234 654.3 261.968 656.146 260.793C657.489 259.45 658.916 258.107 660.426 256.765C661.937 255.254 662.692 254.499 662.692 254.499C662.86 253.66 663.112 253.24 663.447 253.24C663.951 253.24 664.203 253.24 664.203 253.24C665.042 252.736 666.888 251.897 669.741 250.722C672.595 249.547 675.7 247.366 679.057 244.177C690.302 238.806 699.869 235.197 707.757 233.351C715.646 231.337 721.856 230.33 726.388 230.33C730.584 230.497 734.696 231.672 738.724 233.854C742.752 235.868 746.193 238.47 749.046 241.659C752.067 244.848 753.83 248.456 754.333 252.485C755.508 256.513 754.921 261.38 752.571 267.087C750.389 272.626 747.284 277.913 743.256 282.948C739.395 287.815 735.367 291.424 731.171 293.774C726.472 295.788 722.443 296.039 719.087 294.529C715.898 293.018 714.387 290.669 714.555 287.48C714.555 286.137 714.975 284.542 715.814 282.696C716.821 280.85 719.422 277.577 723.618 272.877C728.989 264.989 731.843 259.366 732.178 256.009C732.514 252.653 731.003 250.722 727.647 250.219C726.64 249.883 724.709 249.967 721.856 250.471C719.003 250.974 715.898 251.645 712.541 252.485C709.352 253.156 706.499 253.911 703.981 254.751C701.631 255.59 700.456 256.177 700.456 256.513C700.456 256.513 700.456 256.765 700.456 257.268C700.456 257.772 700.121 257.94 699.449 257.772C699.114 257.772 697.939 258.359 695.925 259.534C694.078 260.541 691.812 261.884 689.127 263.562C686.442 265.241 683.756 267.003 681.071 268.849C678.553 270.528 676.371 272.038 674.525 273.381C672.679 274.724 671.672 275.563 671.504 275.899C671.168 277.745 669.238 279.423 665.713 280.934C662.356 282.948 659.419 285.801 656.902 289.494C654.384 293.186 651.447 297.886 648.09 303.592C645.237 307.453 643.222 311.649 642.048 316.18C640.873 320.544 640.873 324.069 642.048 326.754C642.887 329.44 645.153 332.125 648.845 334.811C652.705 337.328 657.909 340.517 664.454 344.378C670.161 347.567 675.532 350.924 680.567 354.448C685.602 357.973 689.882 361.414 693.407 364.77C696.932 367.959 699.198 370.645 700.205 372.827C702.219 375.68 703.394 378.953 703.729 382.646C704.233 386.338 704.233 389.947 703.729 393.471C703.394 396.828 702.89 399.597 702.219 401.779C701.044 404.465 699.198 407.318 696.68 410.339C694.33 413.36 692.148 414.787 690.134 414.619C688.288 415.123 686.861 415.71 685.854 416.382C685.015 417.053 684.008 417.64 682.833 418.144C681.658 418.815 678.889 419.571 674.525 420.41C670.161 421.417 665.378 422.172 660.174 422.676C654.971 423.347 650.44 423.599 646.579 423.431ZM739.44 399.514C736.922 399.514 734.405 397.667 731.887 393.975C729.37 390.114 727.355 385.415 725.845 379.876C724.502 374.337 723.999 368.883 724.334 363.512C724.334 358.141 724.586 353.861 725.09 350.672C725.761 347.315 726.432 344.042 727.104 340.853C727.607 339.846 727.859 339.007 727.859 338.335C728.027 337.664 728.195 336.573 728.363 335.063C728.698 333.552 729.286 331.034 730.125 327.51C730.796 324.656 731.468 322.307 732.139 320.46C732.978 318.614 733.65 317.355 734.153 316.684C736.167 313.998 738.433 312.404 740.951 311.9C743.468 311.229 745.734 311.481 747.748 312.656C749.93 313.831 751.189 315.593 751.525 317.943C752.532 318.782 753.035 320.712 753.035 323.733C753.203 326.587 753.035 329.608 752.532 332.797C752.028 335.818 751.273 338 750.266 339.342C749.93 340.182 749.511 342.364 749.007 345.888C748.671 349.413 748.252 353.105 747.748 356.966C747.412 360.826 746.993 363.931 746.489 366.281C745.986 369.302 746.154 371.232 746.993 372.072C748 372.743 749.678 371.988 752.028 369.806C754.546 367.456 757.819 363.344 761.847 357.469C765.204 352.434 767.637 348.49 769.148 345.637C770.826 342.783 772.085 340.182 772.924 337.832C773.931 335.482 775.022 332.713 776.197 329.524C777.036 326.838 777.792 324.656 778.463 322.978C779.302 321.3 780.058 320.125 780.729 319.453C782.575 316.768 785.009 315.677 788.03 316.18C791.219 316.516 793.821 317.355 795.835 318.698C797.849 320.712 799.024 323.481 799.359 327.006C799.863 330.363 799.108 334.055 797.093 338.084C795.751 340.769 794.408 343.958 793.065 347.651C791.89 351.343 790.883 355.036 790.044 358.728C789.373 362.421 789.037 365.61 789.037 368.295C789.037 371.652 789.457 373.666 790.296 374.337C791.303 374.841 792.478 375.093 793.821 375.093C795.835 375.093 797.765 374.421 799.611 373.079C801.457 371.568 804.143 368.966 807.667 365.274C809.178 363.763 811.024 361.498 813.206 358.476C815.388 355.455 817.486 352.266 819.5 348.909C821.682 345.553 823.445 342.615 824.787 340.098C826.298 337.412 827.053 335.734 827.053 335.063C827.053 334.055 827.808 332.629 829.319 330.783C830.326 329.44 831.081 328.433 831.585 327.761C832.256 326.922 833.431 326.083 835.11 325.244C836.452 324.572 837.963 324.489 839.641 324.992C841.32 325.328 842.746 326.167 843.921 327.51C844.76 328.181 845.348 329.859 845.684 332.545C846.187 335.063 846.439 337.328 846.439 339.342C845.935 341.189 845.18 343.79 844.173 347.147C843.166 350.336 842.075 353.441 840.9 356.462C839.893 359.316 838.97 361.246 838.131 362.253C837.459 362.924 836.284 364.183 834.606 366.029C832.928 367.708 831.417 369.554 830.074 371.568C825.878 376.603 822.857 379.876 821.011 381.387C819.165 382.897 817.57 384.324 816.227 385.667C812.703 389.191 808.675 392.045 804.143 394.227C799.611 396.241 795.331 397.416 791.303 397.751C787.275 397.919 784.086 397.164 781.736 395.485C776.533 392.8 773.931 388.268 773.931 381.89C773.931 380.547 773.68 379.373 773.176 378.366C772.84 377.191 772.673 376.603 772.673 376.603C772.001 376.603 771.078 376.771 769.903 377.107C768.896 377.442 767.805 378.617 766.63 380.631C765.12 383.485 762.518 386.422 758.826 389.443C755.301 392.296 751.692 394.73 748 396.744C744.307 398.59 741.454 399.514 739.44 399.514ZM857.92 401.779C857.248 400.437 855.738 399.094 853.388 397.751C851.206 396.408 850.115 395.401 850.115 394.73C850.115 394.059 849.695 393.052 848.856 391.709C848.185 390.198 847.513 389.107 846.842 388.436C846.003 387.429 846.255 384.995 847.597 381.135C848.94 377.107 850.954 372.239 853.64 366.533C856.325 360.826 859.262 355.036 862.451 349.161C863.794 347.818 865.137 346.056 866.479 343.874C867.822 341.692 868.829 340.266 869.501 339.594C869.501 338.923 869.752 338.335 870.256 337.832C870.759 337.161 871.347 336.825 872.018 336.825L874.032 332.797C874.368 332.125 875.375 330.783 877.053 328.768C878.9 326.754 881.082 324.572 883.599 322.223C886.117 319.705 888.634 317.355 891.152 315.173C893.838 312.991 896.019 311.397 897.698 310.39C901.223 308.04 904.831 306.949 908.524 307.117C912.384 307.285 915.657 308.46 918.342 310.642C918.846 311.145 919.937 312.152 921.615 313.663C923.461 315.173 925.476 316.852 927.658 318.698C930.007 320.544 932.021 322.223 933.7 323.733L943.015 332.041L938.735 344.629C936.553 351.343 935.966 357.218 936.973 362.253C937.98 367.288 939.574 371.652 941.756 375.344C942.595 377.191 943.686 378.617 945.029 379.624C946.54 380.631 948.47 381.303 950.82 381.638C952.162 381.806 953.421 382.31 954.596 383.149C955.771 383.988 956.358 385.331 956.358 387.177C956.358 391.205 955.603 394.143 954.093 395.989C952.75 397.667 951.239 398.674 949.561 399.01C944.022 399.681 938.735 399.094 933.7 397.248C928.665 395.401 924.133 390.618 920.105 382.897C919.433 381.89 918.51 380.044 917.335 377.359C916.328 374.505 915.741 372.659 915.573 371.82C914.902 372.659 913.978 373.75 912.804 375.093C911.797 376.268 910.789 377.359 909.782 378.366C897.866 390.45 887.627 398.339 879.067 402.031C870.675 405.556 863.626 405.472 857.92 401.779ZM871.766 380.883C872.941 381.051 874.788 380.464 877.305 379.121C879.823 377.61 883.18 375.177 887.376 371.82C893.082 366.952 897.782 362.924 901.474 359.735C905.167 356.546 908.775 352.434 912.3 347.399L917.839 338.335C916.16 334.475 914.65 331.957 913.307 330.783C911.964 329.608 910.622 329.02 909.279 329.02C907.097 329.02 904.495 330.447 901.474 333.3C898.453 335.986 895.012 340.014 891.152 345.385C887.46 350.588 883.264 357.134 878.564 365.022C876.382 368.715 874.704 372.323 873.529 375.848C872.354 379.205 871.766 380.883 871.766 380.883ZM986.391 455.908C984.545 456.076 981.691 455.656 977.831 454.649C973.971 453.81 970.194 452.132 966.502 449.614C961.97 445.754 958.865 442.565 957.186 440.047C955.508 437.53 954.585 435.264 954.417 433.25C954.417 431.403 954.501 429.725 954.669 428.214C955.508 424.522 957.27 422.76 959.956 422.927C962.809 423.095 964.991 423.851 966.502 425.193C968.18 426.536 969.942 428.13 971.789 429.977C973.803 431.991 975.733 433.753 977.579 435.264C979.593 436.774 981.272 437.446 982.614 437.278C985.971 436.942 988.741 435.515 990.922 432.998C993.104 430.648 995.286 426.872 997.468 421.669C998.811 417.976 999.818 414.787 1000.49 412.102C1001.33 409.416 1002.17 406.479 1003.01 403.29C1003.85 400.101 1004.85 395.821 1006.03 390.45C1006.87 386.59 1007.45 383.904 1007.79 382.394C1008.29 380.715 1008.55 379.708 1008.55 379.373C1008.55 378.869 1008.46 378.617 1008.29 378.617C1008.29 378.617 1007.71 378.953 1006.53 379.624C1005.36 380.296 1003.68 381.051 1001.5 381.89C999.482 382.729 997.217 383.569 994.699 384.408C989.999 385.918 985.3 387.261 980.6 388.436C975.901 389.443 972.292 389.527 969.775 388.688C967.257 387.681 965.243 386.002 963.732 383.653C962.222 381.303 961.215 378.785 960.711 376.1C960.375 373.414 960.291 371.232 960.459 369.554C960.795 368.211 961.55 366.029 962.725 363.008C963.9 359.987 965.243 356.798 966.753 353.441C968.264 350.084 969.691 347.147 971.033 344.629C972.376 342.112 973.467 340.769 974.306 340.601C974.978 340.266 975.565 339.594 976.069 338.587C976.74 337.412 977.076 336.489 977.076 335.818C977.243 335.146 977.915 334.055 979.09 332.545C980.432 331.034 984.209 328.097 990.419 323.733C996.629 317.859 1002.25 313.495 1007.29 310.642C1012.32 307.621 1016.94 305.942 1021.13 305.606C1022.31 305.774 1023.4 305.858 1024.41 305.858C1025.58 305.858 1026.17 305.858 1026.17 305.858C1026.17 305.858 1027.09 306.11 1028.94 306.613C1030.78 307.117 1032.63 307.788 1034.48 308.628C1036.66 309.467 1039.01 311.481 1041.53 314.67C1044.04 317.691 1046.23 321.048 1048.07 324.74C1049.92 328.433 1050.93 331.79 1051.09 334.811C1050.93 338.503 1050.09 342.196 1048.58 345.888C1047.07 349.581 1045.64 351.343 1044.3 351.175C1042.95 351.007 1041.44 351.511 1039.76 352.686C1038.25 353.693 1037.08 355.707 1036.24 358.728C1035.74 359.4 1035.15 360.49 1034.48 362.001C1033.81 363.344 1033.05 364.687 1032.21 366.029C1032.04 366.868 1031.62 368.966 1030.95 372.323C1030.28 375.512 1029.44 379.121 1028.44 383.149C1027.6 387.009 1026.84 390.618 1026.17 393.975C1025.5 397.164 1025.08 399.262 1024.91 400.269C1024.74 400.94 1024.32 402.535 1023.65 405.052C1022.98 407.402 1022.14 410.088 1021.13 413.109C1020.29 416.13 1019.37 418.899 1018.36 421.417C1017.69 426.284 1016.35 430.48 1014.34 434.005C1012.32 437.697 1010.14 440.97 1007.79 443.824C1003.93 448.02 1000.07 450.957 996.209 452.635C992.517 454.482 989.244 455.573 986.391 455.908ZM981.607 367.792C982.111 369.134 983.454 369.638 985.635 369.302C987.985 368.966 991.174 368.211 995.202 367.036C1000.07 365.022 1003.68 363.428 1006.03 362.253C1008.55 361.078 1010.48 359.567 1011.82 357.721C1012.83 356.378 1013.75 355.036 1014.59 353.693C1015.6 352.35 1016.52 351.175 1017.36 350.168C1017.69 349.833 1018.2 349.245 1018.87 348.406C1019.71 347.567 1020.38 346.811 1020.88 346.14C1021.89 345.469 1022.73 344.881 1023.4 344.378C1024.24 343.706 1024.99 343.119 1025.67 342.615C1026.5 342.28 1027.26 341.524 1027.93 340.35C1028.6 339.007 1028.77 337.664 1028.44 336.321C1028.27 335.146 1027.51 333.552 1026.17 331.538C1024.83 329.356 1022.98 327.678 1020.63 326.503C1018.45 325.16 1015.85 326.083 1012.83 329.272C1009.97 332.461 1005.36 336.741 998.979 342.112C995.286 346.14 992.013 349.916 989.16 353.441C986.307 356.798 984.209 359.735 982.866 362.253C981.523 364.603 981.104 366.449 981.607 367.792Z" fill="black"/>
<path d="M1060.49 376.995C1059.79 376.995 1058.91 376.995 1057.87 376.995C1056.82 376.878 1055.65 376.587 1054.37 376.121C1052.62 376.121 1051.22 375.771 1050.17 375.072C1049.24 374.256 1048.54 373.44 1048.07 372.624C1046.79 370.876 1046.85 369.535 1048.25 368.603C1049.76 367.554 1052.68 366.796 1056.99 366.33C1060.95 365.397 1064.86 364.756 1068.7 364.407C1072.55 364.057 1076.81 363.882 1081.47 363.882C1084.5 363.882 1086.95 364.174 1088.81 364.756C1090.79 365.339 1092.42 366.272 1093.71 367.554C1095.45 369.302 1095.86 371.167 1094.93 373.148C1094 375.013 1092.19 375.713 1089.51 375.247C1088.69 375.363 1086.95 375.48 1084.27 375.596C1081.7 375.713 1079.37 375.888 1077.27 376.121C1075.99 376.237 1073.72 376.412 1070.45 376.645C1067.19 376.878 1063.87 376.995 1060.49 376.995ZM1109.47 403.395C1109.01 402.462 1107.96 401.53 1106.32 400.598C1104.81 399.665 1104.05 398.966 1104.05 398.5C1104.05 398.033 1103.76 397.334 1103.18 396.401C1102.71 395.352 1102.24 394.595 1101.78 394.129C1101.2 393.429 1101.37 391.739 1102.3 389.058C1103.24 386.261 1104.63 382.881 1106.5 378.918C1108.36 374.955 1110.4 370.934 1112.62 366.854C1113.55 365.922 1114.48 364.698 1115.42 363.183C1116.35 361.668 1117.05 360.677 1117.51 360.211C1117.51 359.745 1117.69 359.337 1118.04 358.987C1118.39 358.521 1118.8 358.288 1119.26 358.288L1120.66 355.49C1120.89 355.024 1121.59 354.092 1122.76 352.693C1124.04 351.294 1125.56 349.779 1127.3 348.147C1129.05 346.399 1130.8 344.767 1132.55 343.252C1134.41 341.737 1135.93 340.629 1137.1 339.93C1139.54 338.298 1142.05 337.541 1144.61 337.657C1147.29 337.774 1149.57 338.59 1151.43 340.105C1151.78 340.454 1152.54 341.154 1153.7 342.203C1154.99 343.252 1156.39 344.417 1157.9 345.699C1159.53 346.982 1160.93 348.147 1162.1 349.196L1168.57 354.966L1165.59 363.707C1164.08 368.37 1163.67 372.449 1164.37 375.946C1165.07 379.443 1166.18 382.473 1167.69 385.037C1168.27 386.319 1169.03 387.31 1169.96 388.009C1171.01 388.709 1172.35 389.175 1173.99 389.408C1174.92 389.525 1175.79 389.874 1176.61 390.457C1177.42 391.04 1177.83 391.972 1177.83 393.254C1177.83 396.052 1177.31 398.092 1176.26 399.374C1175.33 400.539 1174.28 401.239 1173.11 401.472C1169.26 401.938 1165.59 401.53 1162.1 400.248C1158.6 398.966 1155.45 395.644 1152.66 390.282C1152.19 389.583 1151.55 388.301 1150.73 386.436C1150.03 384.454 1149.63 383.172 1149.51 382.59C1149.04 383.172 1148.4 383.93 1147.59 384.862C1146.89 385.678 1146.19 386.436 1145.49 387.135C1137.21 395.527 1130.1 401.005 1124.16 403.57C1118.33 406.017 1113.43 405.959 1109.47 403.395ZM1119.09 388.884C1119.9 389 1121.19 388.592 1122.93 387.66C1124.68 386.611 1127.01 384.921 1129.93 382.59C1133.89 379.209 1137.15 376.412 1139.72 374.198C1142.28 371.983 1144.79 369.127 1147.24 365.631L1151.08 359.337C1149.92 356.656 1148.87 354.907 1147.93 354.092C1147 353.276 1146.07 352.868 1145.14 352.868C1143.62 352.868 1141.82 353.858 1139.72 355.84C1137.62 357.705 1135.23 360.502 1132.55 364.232C1129.99 367.845 1127.07 372.391 1123.81 377.869C1122.29 380.433 1121.13 382.939 1120.31 385.387C1119.5 387.718 1119.09 388.884 1119.09 388.884ZM1195.72 407.241C1194.43 407.008 1193.03 406.251 1191.52 404.968C1190 403.57 1188.61 402.054 1187.32 400.423C1186.16 398.674 1185.4 397.217 1185.05 396.052C1185.05 395.819 1184.88 395.527 1184.53 395.178C1184.29 394.828 1184.18 394.653 1184.18 394.653C1183.71 394.303 1183.42 392.788 1183.3 390.107C1183.3 387.31 1183.48 384.221 1183.83 380.841C1184.18 377.461 1184.58 374.78 1185.05 372.799C1185.63 370.934 1186.51 368.428 1187.67 365.281C1188.84 362.017 1189.83 359.103 1190.65 356.539L1195.37 346.399L1188.37 344.476C1187.56 344.243 1186.86 343.776 1186.27 343.077C1185.81 342.378 1185.57 341.795 1185.57 341.329C1185.57 340.396 1186.1 339.056 1187.15 337.307C1188.2 335.559 1188.96 334.685 1189.42 334.685C1190 334.801 1191.05 334.86 1192.57 334.86C1194.2 334.86 1195.77 334.801 1197.29 334.685C1198.8 334.568 1199.74 334.452 1200.09 334.335C1200.55 334.102 1201.02 333.811 1201.48 333.461C1201.95 332.995 1202.3 332.354 1202.53 331.538C1203.12 330.256 1203.64 329.265 1204.11 328.566C1204.57 327.866 1205.21 326.817 1206.03 325.419C1206.85 323.903 1207.49 322.621 1207.95 321.572C1208.54 320.523 1209.41 319.066 1210.58 317.201C1211.16 316.386 1211.8 315.395 1212.5 314.229C1213.2 313.064 1214.07 312.073 1215.12 311.257C1216.17 310.325 1217.86 309.684 1220.19 309.334C1222.64 308.868 1224.74 309.392 1226.49 310.907C1227.42 312.073 1227.94 313.18 1228.06 314.229C1228.18 315.278 1227.71 316.619 1226.66 318.25C1225.73 320.232 1224.62 322.039 1223.34 323.67C1222.17 325.186 1221.07 326.934 1220.02 328.915C1218.15 331.48 1217.8 332.937 1218.97 333.286C1220.13 333.636 1223.4 333.403 1228.76 332.587C1232.14 332.004 1234.59 332.354 1236.1 333.636C1237.62 334.918 1238.49 336.55 1238.72 338.531C1239.07 341.329 1238.78 343.019 1237.85 343.601C1236.92 344.184 1234.24 344.476 1229.81 344.476C1227.01 344.942 1224.62 345.233 1222.64 345.35C1220.66 345.35 1219.2 345.35 1218.27 345.35C1216.75 345.466 1215.76 345.525 1215.3 345.525C1214.83 345.525 1214.13 345.641 1213.2 345.874C1212.27 346.107 1211.57 346.515 1211.1 347.098C1210.75 347.564 1210.34 348.264 1209.88 349.196C1209.41 349.662 1208.71 350.886 1207.78 352.868C1206.85 354.849 1205.68 357.005 1204.28 359.337C1202.65 364.232 1201.25 368.952 1200.09 373.498C1199.04 377.927 1198.1 382.356 1197.29 386.786C1196.94 389 1197 390.632 1197.46 391.681C1198.05 392.613 1199.56 393.196 1202.01 393.429C1203.29 393.546 1205.16 393.546 1207.6 393.429C1210.05 393.196 1212.09 392.847 1213.72 392.38C1215.01 391.798 1216.35 391.215 1217.74 390.632C1219.14 389.933 1220.43 389.233 1221.59 388.534C1222.64 387.951 1223.69 387.368 1224.74 386.786C1225.79 386.086 1226.31 385.737 1226.31 385.737C1226.89 384.804 1227.71 384.979 1228.76 386.261C1229.92 387.427 1230.74 388.709 1231.21 390.107C1231.21 391.506 1230.92 393.196 1230.33 395.178C1229.75 397.043 1227.59 399.024 1223.86 401.122C1218.62 404.386 1213.37 406.367 1208.13 407.066C1202.88 407.766 1198.75 407.824 1195.72 407.241ZM1297.3 404.269C1294.39 405.668 1291.53 406.192 1288.74 405.843C1286.06 405.376 1283.78 403.919 1281.92 401.472C1280.17 398.907 1279.3 395.178 1279.3 390.282C1279.3 389 1279.35 387.485 1279.47 385.737C1279.7 383.872 1280.05 381.949 1280.52 379.967C1280.99 377.869 1281.57 375.771 1282.27 373.673C1282.62 372.624 1283.08 371.575 1283.67 370.526C1284.37 369.477 1284.48 368.952 1284.02 368.952C1283.55 368.952 1282.97 369.244 1282.27 369.827C1281.69 370.409 1281.22 370.876 1280.87 371.225C1277.96 373.79 1275.27 376.47 1272.83 379.268C1270.5 381.949 1268.4 384.629 1266.53 387.31C1264.78 389.874 1263.39 392.264 1262.34 394.478C1261.4 396.693 1260.94 398.558 1260.94 400.073C1260.94 401.821 1260.06 403.045 1258.32 403.745C1256.57 404.444 1255.05 404.386 1253.77 403.57C1251.56 402.288 1249.52 400.306 1247.65 397.625C1245.9 394.945 1245.2 391.448 1245.55 387.135C1245.9 381.657 1246.37 376.762 1246.95 372.449C1247.53 368.137 1248.47 363.474 1249.75 358.462C1251.15 353.334 1252.95 347.098 1255.17 339.755C1256.68 335.676 1258.08 331.829 1259.36 328.216C1260.65 324.486 1261.75 321.339 1262.69 318.775C1263.74 316.211 1264.38 314.637 1264.61 314.054C1265.19 313.472 1265.95 312.073 1266.88 309.858C1267.82 307.527 1268.63 305.196 1269.33 302.865C1270.15 300.534 1270.55 299.135 1270.55 298.669C1270.55 297.737 1270.73 296.921 1271.08 296.221C1271.54 295.522 1271.95 294.881 1272.3 294.298C1273 292.666 1273.58 291.559 1274.05 290.976C1274.63 290.277 1275.16 289.927 1275.62 289.927C1276.21 289.927 1277.14 290.219 1278.42 290.801C1279.82 291.384 1281.1 292.142 1282.27 293.074C1283.55 293.89 1284.31 294.764 1284.54 295.697C1285.36 297.329 1285.82 299.019 1285.94 300.767C1286.06 302.399 1285.65 304.439 1284.72 306.886C1283.78 309.334 1282.15 312.714 1279.82 317.027C1277.96 320.64 1276.27 324.37 1274.75 328.216C1273.23 332.062 1271.78 336.084 1270.38 340.28C1269.8 342.028 1269.04 344.359 1268.11 347.273C1267.17 350.07 1266.24 352.984 1265.31 356.015C1264.49 358.929 1263.79 361.551 1263.21 363.882C1262.63 366.213 1262.34 367.729 1262.34 368.428C1262.34 369.244 1262.8 369.652 1263.74 369.652C1264.67 369.535 1265.6 368.836 1266.53 367.554C1267 366.621 1267.76 365.747 1268.81 364.931C1269.85 363.999 1270.79 363.066 1271.6 362.134C1272.54 360.968 1273.64 359.628 1274.92 358.113C1276.32 356.481 1277.78 354.966 1279.3 353.567C1280.93 352.052 1282.38 350.828 1283.67 349.895C1285.07 348.963 1286.23 348.497 1287.16 348.497C1289.38 348.497 1291.24 349.138 1292.76 350.42C1294.27 351.702 1295.56 353.684 1296.6 356.364C1296.95 356.714 1297.3 357.18 1297.65 357.763C1298 358.229 1298.24 358.579 1298.35 358.812C1298.94 359.278 1299.23 361.143 1299.23 364.407C1299.23 367.554 1298.29 371.925 1296.43 377.519C1295.38 381.832 1294.74 385.037 1294.51 387.135C1294.39 389.233 1294.8 390.282 1295.73 390.282C1295.73 390.282 1296.31 389.933 1297.48 389.233C1298.76 388.534 1300.1 387.776 1301.5 386.96C1304.88 384.746 1307.33 384.047 1308.84 384.862C1310.36 385.678 1311.12 386.727 1311.12 388.009C1311.12 389.058 1310.71 390.282 1309.89 391.681C1309.19 393.08 1308.84 394.012 1308.84 394.478C1308.84 394.478 1308.84 394.537 1308.84 394.653C1308.84 394.653 1308.84 394.886 1308.84 395.352C1308.84 395.586 1308.09 396.401 1306.57 397.8C1305.05 399.199 1303.36 400.598 1301.5 401.996C1299.75 403.278 1298.35 404.036 1297.3 404.269ZM1338.72 405.668C1336.27 406.134 1334.41 406.017 1333.13 405.318C1331.96 404.502 1330.74 403.511 1329.45 402.346C1327.59 401.413 1325.9 400.131 1324.38 398.5C1322.87 396.751 1321.7 394.945 1320.89 393.08C1320.07 391.215 1319.72 389.758 1319.84 388.709C1320.19 384.629 1321.12 380.2 1322.64 375.421C1324.27 370.643 1326.31 365.98 1328.75 361.435C1331.32 356.889 1334.17 352.868 1337.32 349.371C1340.59 345.758 1344.08 343.135 1347.81 341.503C1350.14 340.571 1352.65 340.221 1355.33 340.454C1358.01 340.688 1359.82 341.795 1360.75 343.776C1362.5 347.156 1362.09 349.313 1359.53 350.245C1359.18 350.245 1358.77 350.42 1358.3 350.77C1357.84 351.003 1357.6 351.352 1357.6 351.819C1358.07 352.052 1359.35 352.11 1361.45 351.994C1363.55 351.76 1365.65 351.411 1367.74 350.945C1369.96 350.362 1371.41 349.779 1372.11 349.196C1372.81 348.846 1373.34 348.672 1373.69 348.672C1374.04 348.672 1374.91 348.788 1376.31 349.021C1378.29 349.604 1379.28 350.303 1379.28 351.119C1379.28 351.586 1379.46 352.343 1379.81 353.392C1380.16 354.325 1380.56 354.791 1381.03 354.791C1381.85 354.907 1382.02 355.723 1381.55 357.239C1381.21 358.754 1379.86 360.327 1377.53 361.959C1375.32 363.358 1373.92 364.29 1373.34 364.756C1372.87 365.106 1372.81 365.922 1373.16 367.204C1374.1 369.419 1374.04 372.099 1372.99 375.247C1371.94 378.394 1370.19 381.657 1367.74 385.037C1365.3 388.417 1362.38 391.623 1359 394.653C1355.74 397.567 1352.3 400.073 1348.69 402.171C1345.19 404.152 1341.87 405.318 1338.72 405.668ZM1339.24 390.982C1339.71 390.982 1340.53 390.749 1341.69 390.282C1342.86 389.7 1343.79 389.233 1344.49 388.884C1344.96 388.417 1345.54 387.893 1346.24 387.31C1347.05 386.611 1347.7 386.203 1348.16 386.086C1348.63 386.086 1348.92 385.911 1349.04 385.562C1349.15 385.096 1349.56 384.221 1350.26 382.939C1350.96 381.541 1352.36 379.501 1354.46 376.82C1356.79 374.256 1358.3 372.216 1359 370.701C1359.7 369.069 1359.76 367.321 1359.18 365.456C1359.06 364.99 1358.71 364.698 1358.13 364.582C1357.66 364.465 1357.02 364.174 1356.2 363.707C1355.04 363.707 1354.22 363.999 1353.76 364.582C1353.41 365.048 1352.59 364.756 1351.31 363.707L1348.51 360.211L1345.54 363.183C1343.67 365.048 1341.98 367.379 1340.47 370.176C1339.07 372.974 1337.96 375.829 1337.15 378.743C1336.33 381.657 1335.81 384.221 1335.57 386.436C1335.46 388.184 1335.75 389.35 1336.45 389.933C1337.15 390.515 1338.08 390.865 1339.24 390.982ZM1394.55 401.122C1394.08 401.122 1392.97 400.714 1391.22 399.898C1389.48 398.966 1388.37 398.266 1387.9 397.8C1387.09 396.868 1386.56 395.877 1386.33 394.828C1386.1 393.662 1385.98 391.448 1385.98 388.184C1385.98 384.454 1386.74 380.258 1388.25 375.596C1389.77 370.817 1392.33 364.465 1395.94 356.539L1403.11 342.028C1403.7 341.212 1404.22 340.513 1404.69 339.93C1405.15 339.231 1405.68 338.59 1406.26 338.007C1406.49 338.007 1406.78 338.007 1407.13 338.007C1407.6 338.007 1407.95 338.065 1408.18 338.182C1409.23 338.298 1410.86 338.939 1413.08 340.105C1415.41 341.27 1416.81 343.019 1417.27 345.35C1417.27 346.865 1417.04 348.672 1416.58 350.77C1416.11 352.751 1414.71 355.374 1412.38 358.637C1411.45 359.803 1410.51 361.493 1409.58 363.707C1408.77 365.922 1408.01 368.02 1407.31 370.001C1407.19 370.235 1406.84 370.817 1406.26 371.75C1405.79 372.566 1405.33 373.44 1404.86 374.372C1404.4 375.188 1404.16 375.713 1404.16 375.946L1403.46 377.519L1410.98 370.176C1416.23 364.931 1420.65 361.201 1424.27 358.987C1427.88 356.772 1430.91 355.84 1433.36 356.19C1435.92 356.539 1437.96 357.996 1439.48 360.56C1440.29 361.726 1440.88 363.008 1441.23 364.407C1441.58 365.689 1441.81 367.204 1441.93 368.952C1442.04 370.701 1441.98 372.915 1441.75 375.596V385.562C1443.97 384.979 1445.66 384.513 1446.82 384.163C1447.99 383.697 1449.15 383.289 1450.32 382.939C1451.25 382.706 1452.18 382.473 1453.12 382.24C1454.16 382.007 1455.45 381.832 1456.96 381.715C1456.85 383.231 1456.2 385.096 1455.04 387.31C1453.87 389.525 1452.42 391.739 1450.67 393.954C1449.04 396.168 1447.23 398.033 1445.25 399.549C1443.38 401.064 1441.63 401.821 1440 401.821C1438.49 401.821 1436.74 401.355 1434.76 400.423C1432.78 399.374 1431.09 397.392 1429.69 394.478C1429.22 392.963 1428.76 391.215 1428.29 389.233C1427.82 387.252 1427.59 385.154 1427.59 382.939V375.247C1427.59 374.547 1427.53 374.081 1427.41 373.848C1427.41 373.498 1427.36 373.323 1427.24 373.323C1426.77 373.323 1425.26 374.547 1422.69 376.995C1420.25 379.443 1417.74 382.007 1415.18 384.688C1409.81 390.282 1405.33 394.42 1401.71 397.101C1398.22 399.782 1395.83 401.122 1394.55 401.122Z" fill="#CD8A8A"/>
</g>
<defs>
<clipPath id="clip0_17_94">
<rect width="1535" height="610" fill="white"/>
</clipPath>
</defs>
</svg>
