<svg width="690" height="690" viewBox="0 0 690 690" fill="none" xmlns="http://www.w3.org/2000/svg">
<g clip-path="url(#clip0_17_82)">
<path d="M54 148.95L63.9932 137.764L40.5204 155.531L54 148.95ZM344.894 408.818L334.901 420.004L354.888 420.004L344.894 408.818ZM266.664 584.579L253.184 591.16L275.717 596.54L266.664 584.579ZM344.894 525.366L353.947 513.406L335.842 513.406L344.894 525.366ZM423.125 584.579L414.072 596.54L436.604 591.16L423.125 584.579ZM635.789 148.95L649.268 155.531L625.796 137.764L635.789 148.95ZM44.0068 160.137L334.901 420.004L354.888 397.631L63.9932 137.764L44.0068 160.137ZM280.143 577.999L67.4796 142.37L40.5204 155.531L253.184 591.16L280.143 577.999ZM335.842 513.406L257.611 572.619L275.717 596.54L353.947 537.326L335.842 513.406ZM335.842 537.326L414.072 596.54L432.178 572.619L353.947 513.406L335.842 537.326ZM436.604 591.16L649.268 155.531L622.309 142.37L409.645 577.999L436.604 591.16ZM625.796 137.764L334.901 397.631L354.888 420.004L645.782 160.137L625.796 137.764Z" fill="black"/>
<path d="M341.457 617.64C312.177 617.64 281.697 612.12 250.017 601.08C218.337 590.04 189.777 573.24 164.337 550.68L234.897 465.72C251.697 479.16 269.697 490.2 288.897 498.84C308.577 507 327.057 511.08 344.337 511.08C363.057 511.08 376.497 508.2 384.657 502.44C393.297 496.68 397.617 488.52 397.617 477.96C397.617 470.28 394.977 464.28 389.697 459.96C384.897 455.16 377.697 450.84 368.097 447C358.977 442.68 347.697 437.88 334.257 432.6L275.937 408.12C259.137 401.4 243.537 392.28 229.137 380.76C214.737 368.76 203.217 354.36 194.577 337.56C185.937 320.28 181.617 300.36 181.617 277.8C181.617 250.92 189.057 226.68 203.937 205.08C218.817 183 239.217 165.48 265.137 152.52C291.537 139.08 321.777 132.36 355.857 132.36C382.737 132.36 409.857 137.64 437.217 148.2C465.057 158.28 489.777 173.88 511.377 195L449.457 272.76C433.617 261.72 418.257 253.32 403.377 247.56C388.977 241.8 373.137 238.92 355.857 238.92C340.977 238.92 328.977 241.56 319.857 246.84C311.217 252.12 306.897 260.04 306.897 270.6C306.897 277.8 309.537 284.04 314.817 289.32C320.577 294.12 328.737 298.68 339.297 303C349.857 306.84 362.097 311.64 376.017 317.4L432.897 339.72C452.577 347.4 469.137 357.24 482.577 369.24C496.017 380.76 506.337 394.68 513.537 411C520.737 427.32 524.337 446.28 524.337 467.88C524.337 494.28 517.137 519 502.737 542.04C488.817 564.6 468.177 582.84 440.817 596.76C413.457 610.68 380.337 617.64 341.457 617.64Z" fill="black"/>
</g>
<defs>
<clipPath id="clip0_17_82">
<rect width="690" height="690" fill="white"/>
</clipPath>
</defs>
</svg>
