<?xml version="1.0" standalone="no"?>
<!DOCTYPE svg PUBLIC "-//W3C//DTD SVG 20010904//EN"
 "http://www.w3.org/TR/2001/REC-SVG-20010904/DTD/svg10.dtd">
<svg version="1.0" xmlns="http://www.w3.org/2000/svg"
 width="700.000000pt" height="700.000000pt" viewBox="0 0 700.000000 700.000000"
 preserveAspectRatio="xMidYMid meet">
<metadata>
Created by potrace 1.14, written by Peter Selinger 2001-2017
</metadata>
<g transform="translate(0.000000,700.000000) scale(0.100000,-0.100000)"
fill="#000000" stroke="none">
<path d="M3468 5655 c-2 -2 -37 -5 -78 -9 -41 -3 -86 -8 -100 -10 -14 -2 -43
-6 -65 -10 -171 -24 -428 -112 -583 -200 -35 -20 -66 -36 -69 -36 -10 0 -132
-87 -202 -144 -168 -136 -302 -302 -396 -491 -30 -60 -62 -139 -71 -175 -10
-36 -19 -67 -20 -69 -4 -5 -37 21 -120 96 -43 39 -88 80 -100 90 -29 25 -151
133 -178 158 -13 11 -40 36 -62 55 -21 20 -82 74 -134 120 -52 47 -100 89
-106 95 -31 28 -181 162 -274 245 -58 51 -138 123 -178 159 -41 36 -77 67 -80
68 -10 4 -237 -173 -235 -183 1 -5 68 -144 148 -309 250 -511 362 -739 650
-1330 51 -104 148 -302 215 -440 67 -137 157 -322 200 -410 43 -88 135 -277
205 -420 70 -143 152 -312 182 -375 30 -63 63 -131 73 -150 l18 -36 -70 -84
c-39 -47 -85 -103 -104 -125 -278 -335 -265 -317 -246 -338 9 -11 44 -40 77
-65 33 -25 62 -49 65 -52 11 -14 219 -149 295 -192 218 -123 546 -245 790
-294 43 -9 132 -24 170 -29 22 -3 45 -8 52 -10 69 -23 546 -23 684 0 13 2 42
6 64 10 87 12 114 18 225 47 149 39 249 77 386 149 314 162 530 378 678 677
42 82 100 241 111 301 3 14 10 55 17 91 14 72 16 343 5 430 -4 30 -10 70 -12
87 -2 18 -11 59 -20 92 l-17 59 35 73 c19 41 99 205 177 364 156 317 280 572
430 880 114 235 253 519 410 840 62 127 148 303 191 392 43 89 79 166 79 171
0 6 -24 27 -52 48 -29 21 -55 41 -58 44 -3 4 -31 26 -63 50 l-58 43 -27 -24
c-15 -14 -52 -47 -82 -74 -30 -28 -91 -81 -134 -120 -44 -38 -84 -75 -90 -80
-6 -6 -74 -66 -151 -135 -196 -175 -198 -176 -221 -197 -18 -15 -165 -148
-198 -178 -6 -5 -72 -64 -146 -130 -74 -66 -137 -122 -140 -125 -3 -3 -25 -23
-50 -45 -85 -75 -214 -190 -275 -245 -33 -30 -94 -84 -134 -120 -40 -36 -83
-74 -95 -85 -12 -11 -56 -49 -96 -85 -41 -36 -99 -88 -129 -116 -31 -28 -76
-68 -101 -90 -25 -21 -61 -54 -80 -71 -19 -18 -40 -33 -45 -33 -6 0 -152 56
-325 125 -172 69 -318 125 -324 125 -28 0 -276 133 -310 167 -107 105 -108
285 -1 388 83 81 208 116 415 117 272 1 477 -57 746 -212 48 -28 90 -50 95
-50 4 0 9 -3 11 -7 4 -11 85 -63 96 -63 5 0 20 14 33 31 13 17 96 122 184 233
89 110 217 272 287 359 l126 159 -63 58 c-184 172 -442 327 -695 418 -213 77
-347 113 -520 137 -25 3 -58 9 -75 12 -30 5 -362 12 -367 8z m-2333 -894 c22
-21 82 -74 133 -119 82 -73 137 -122 192 -172 9 -8 54 -49 101 -90 46 -41 86
-77 89 -80 3 -3 25 -23 50 -44 132 -115 141 -125 145 -174 16 -166 29 -236 67
-352 94 -292 328 -566 638 -746 112 -66 139 -78 536 -244 186 -78 353 -148
369 -155 346 -145 423 -184 489 -245 63 -58 87 -112 87 -195 0 -86 -29 -153
-94 -210 -78 -71 -150 -98 -302 -112 -310 -29 -606 45 -925 230 -128 75 -240
151 -294 200 -27 24 -37 21 -67 -18 l-27 -35 -16 35 c-9 19 -85 173 -167 342
-83 169 -177 362 -209 428 -32 66 -126 260 -210 430 -84 171 -183 373 -220
450 -37 77 -130 266 -205 420 -76 154 -162 332 -192 395 -30 63 -60 124 -66
135 -11 21 22 -4 98 -74z m4796 12 c-38 -76 -156 -318 -311 -638 -43 -88 -135
-277 -205 -420 -70 -143 -172 -352 -227 -465 -92 -189 -101 -203 -114 -185
-107 146 -316 314 -510 411 -44 21 -81 40 -83 41 -5 3 24 31 133 128 44 39 84
75 90 80 63 57 198 178 225 201 19 16 41 36 50 45 9 8 77 69 151 135 74 65
141 126 150 134 9 8 47 42 84 75 38 33 74 65 80 71 6 6 97 87 201 180 105 93
206 183 225 201 48 43 94 83 98 83 1 0 -15 -35 -37 -77z"/>
</g>
</svg>
